<?xml version="1.0" encoding="iso-8859-1"?>
<!DOCTYPE svg PUBLIC "-//W3C//DTD SVG 1.1//EN" "http://www.w3.org/Graphics/SVG/1.1/DTD/svg11.dtd">
<!-- Generator: Arbortext IsoDraw 7.2 -->
<svg id="Standardebene" width="100%" height="100%" viewBox="0 0 13.382 6.862"
 xmlns="http://www.w3.org/2000/svg" xmlns:xlink="http://www.w3.org/1999/xlink"
 fill-rule="evenodd" clip-rule="evenodd" stroke="#000000" stroke-linecap="round" fill="none" xml:space="preserve">
 <g>
  <g>
   <path stroke="none" fill="#EEEEEE" d="M7.541 0C7.609 0 7.613 0 7.613 0L9.952 0 13.382 3.431 9.952 6.862 9.952 6.815C9.952 6.815 8.747 6.815 7.541 6.815"/>
  </g>
  <g>
   <path stroke="none" fill="#EEEEEE" d="M6.351 6.815C4.919 6.815 3.972 6.815 3.972 6.815L2.942 6.815"/>
  </g>
  <g>
   <path stroke="none" fill="#EEEEEE" d="M7.541 0C7.541 1.044 7.541 4.208 7.541 6.817"/>
  </g>
  <g>
   <path stroke="none" fill="#EEEEEE" d="M6.351 0C6.351 0.513 6.351 1.564 6.351 2.815"/>
  </g>
  <g>
   <path stroke="none" fill="#EEEEEE" d="M6.351 2.815C4.727 2.815 0 2.817 0 2.817 0 1.163 0 0 0 0 0 0 6.126 0 6.351 0"/>
  </g>
  <g>
   <path stroke="none" fill="#EEEEEE" d="M2.942 6.815L0 6.815C0 6.815 0 5.408 0 4.006 0 4.006 3.33 4.006 6.357 4.006 6.351 4.934 6.351 5.908 6.351 6.817"/>
  </g>
 </g>
</svg>
